<svg xmlns="http://www.w3.org/2000/svg" xmlns:xlink="http://www.w3.org/1999/xlink" width="523" zoomAndPan="magnify" viewBox="0 0 392.25 72" height="96" preserveAspectRatio="xMidYMid meet" version="1.0"><defs><g><g id="id1"/></g><clipPath id="id2"><path d="M 0 0.0703125 L 391.5 0.0703125 L 391.5 41 L 0 41 Z M 0 0.0703125 " clip-rule="nonzero"/></clipPath><clipPath id="id3"><path d="M 0 31 L 391.5 31 L 391.5 71.929688 L 0 71.929688 Z M 0 31 " clip-rule="nonzero"/></clipPath></defs><g fill="rgb(100%, 34.118652%, 34.118652%)" fill-opacity="1"><g transform="translate(19.154797, 63.804982)"><g><path d="M 26.453125 -8 C 27.472656 -8.03125 28 -7.390625 28.03125 -6.078125 C 28.070312 -4.773438 28.082031 -3.796875 28.0625 -3.140625 C 27.945312 -1.671875 27.316406 -0.816406 26.171875 -0.578125 C 22.566406 0.0546875 19.890625 0.398438 18.140625 0.453125 C 12.066406 0.628906 7.835938 -0.957031 5.453125 -4.3125 C 3.066406 -7.675781 1.742188 -13.820312 1.484375 -22.75 C 1.296875 -29.269531 1.648438 -34.269531 2.546875 -37.75 C 3.441406 -41.226562 4.984375 -43.691406 7.171875 -45.140625 C 9.359375 -46.585938 12.660156 -47.375 17.078125 -47.5 C 21.503906 -47.632812 24.75 -47.035156 26.8125 -45.703125 C 27.238281 -45.441406 27.457031 -45.109375 27.46875 -44.703125 C 27.476562 -44.296875 27.304688 -43.519531 26.953125 -42.375 C 26.597656 -41.238281 26.253906 -40.429688 25.921875 -39.953125 C 25.585938 -39.472656 25.234375 -39.226562 24.859375 -39.21875 C 24.492188 -39.207031 24.207031 -39.222656 24 -39.265625 C 20.925781 -39.785156 18.28125 -40.015625 16.0625 -39.953125 C 13.84375 -39.890625 12.429688 -38.625 11.828125 -36.15625 C 11.234375 -33.6875 11.015625 -29.707031 11.171875 -24.21875 C 11.335938 -18.738281 11.59375 -14.921875 11.9375 -12.765625 C 12.289062 -10.617188 12.863281 -9.128906 13.65625 -8.296875 C 14.457031 -7.460938 15.703125 -7.066406 17.390625 -7.109375 C 19.078125 -7.160156 20.988281 -7.316406 23.125 -7.578125 C 25.269531 -7.847656 26.378906 -7.988281 26.453125 -8 Z M 26.453125 -8 "/></g></g></g><g fill="rgb(100%, 34.118652%, 34.118652%)" fill-opacity="1"><g transform="translate(49.607663, 62.918378)"><g><path d="M 1.609375 -22.75 C 1.421875 -29.226562 1.785156 -34.21875 2.703125 -37.71875 C 3.617188 -41.21875 5.171875 -43.691406 7.359375 -45.140625 C 9.546875 -46.585938 12.734375 -47.375 16.921875 -47.5 C 21.117188 -47.625 24.347656 -47.023438 26.609375 -45.703125 C 28.867188 -44.378906 30.550781 -42.007812 31.65625 -38.59375 C 32.757812 -35.175781 33.40625 -30.207031 33.59375 -23.6875 C 33.851562 -14.757812 32.890625 -8.546875 30.703125 -5.046875 C 28.515625 -1.554688 24.382812 0.273438 18.3125 0.453125 C 12.238281 0.628906 8 -0.957031 5.59375 -4.3125 C 3.195312 -7.675781 1.867188 -13.820312 1.609375 -22.75 Z M 11.484375 -34.453125 C 11.285156 -32.921875 11.191406 -31.367188 11.203125 -29.796875 C 11.210938 -28.222656 11.269531 -25.5625 11.375 -21.8125 C 11.476562 -18.0625 11.691406 -14.925781 12.015625 -12.40625 C 12.335938 -9.894531 12.710938 -8.242188 13.140625 -7.453125 C 13.566406 -6.671875 14.125 -6.289062 14.8125 -6.3125 C 18.394531 -6.414062 20.726562 -6.847656 21.8125 -7.609375 C 22.207031 -7.910156 22.585938 -8.390625 22.953125 -9.046875 C 23.328125 -9.710938 23.585938 -10.394531 23.734375 -11.09375 C 23.878906 -11.789062 23.988281 -12.820312 24.0625 -14.1875 C 24.175781 -15.9375 24.164062 -19.082031 24.03125 -23.625 C 23.90625 -28.164062 23.691406 -31.75 23.390625 -34.375 C 23.085938 -37 22.707031 -38.78125 22.25 -39.71875 C 21.800781 -40.664062 21.226562 -41.128906 20.53125 -41.109375 C 18.90625 -41.066406 17.59375 -40.957031 16.59375 -40.78125 C 15.601562 -40.613281 14.726562 -40.242188 13.96875 -39.671875 C 13.207031 -39.097656 12.648438 -38.46875 12.296875 -37.78125 C 11.953125 -37.101562 11.679688 -35.992188 11.484375 -34.453125 Z M 11.484375 -34.453125 "/></g></g></g><g fill="rgb(100%, 34.118652%, 34.118652%)" fill-opacity="1"><g transform="translate(86.114411, 61.855522)"><g><path d="M 2.703125 -1.546875 L 1.453125 -44.796875 C 1.410156 -46.296875 2.859375 -47.085938 5.796875 -47.171875 C 6.410156 -47.191406 6.890625 -47.1875 7.234375 -47.15625 C 7.578125 -47.132812 8.019531 -46.957031 8.5625 -46.625 C 9.101562 -46.289062 9.582031 -45.800781 10 -45.15625 L 21.6875 -19.78125 L 20.59375 -45.421875 C 20.550781 -46.878906 22 -47.648438 24.9375 -47.734375 C 26.15625 -47.765625 26.992188 -47.644531 27.453125 -47.375 C 27.910156 -47.113281 28.171875 -46.535156 28.234375 -45.640625 L 29.75 -27.25 L 30.484375 -2.171875 C 30.503906 -1.484375 30.492188 -1.015625 30.453125 -0.765625 C 30.316406 -0.179688 29.53125 0.128906 28.09375 0.171875 C 25.445312 0.242188 23.835938 -0.460938 23.265625 -1.953125 L 10.484375 -26.984375 L 11.265625 -1.671875 C 11.296875 -0.941406 11.296875 -0.453125 11.265625 -0.203125 C 11.117188 0.367188 10.332031 0.675781 8.90625 0.71875 C 4.820312 0.84375 2.753906 0.0859375 2.703125 -1.546875 Z M 2.703125 -1.546875 "/></g></g></g><g fill="rgb(100%, 34.118652%, 34.118652%)" fill-opacity="1"><g transform="translate(119.319044, 60.888803)"><g><path d="M 2.75 -0.078125 L 1.40625 -46.078125 L 22.5 -46.6875 C 24.664062 -46.707031 25.769531 -46.144531 25.8125 -45 C 25.863281 -42.925781 25.675781 -41.472656 25.25 -40.640625 C 24.832031 -39.816406 23.890625 -39.382812 22.421875 -39.34375 L 9.453125 -38.96875 L 10.390625 -28.15625 L 23.15625 -28.53125 C 24.832031 -28.570312 25.691406 -27.9375 25.734375 -26.625 C 25.796875 -24.507812 25.648438 -23.066406 25.296875 -22.296875 C 24.953125 -21.535156 24.191406 -21.140625 23.015625 -21.109375 L 10.71875 -20.75 L 11.3125 -0.328125 C 11.320312 -0.0859375 11.3125 0.0703125 11.28125 0.15625 C 11.082031 0.5 10.300781 0.6875 8.9375 0.71875 C 7.570312 0.757812 6.203125 0.695312 4.828125 0.53125 C 3.453125 0.363281 2.757812 0.160156 2.75 -0.078125 Z M 2.75 -0.078125 "/></g></g></g><g fill="rgb(100%, 34.118652%, 34.118652%)" fill-opacity="1"><g transform="translate(146.164037, 60.107238)"><g><path d="M 3.390625 -7.515625 L 5.59375 -7.578125 L 4.6875 -38.828125 L 2.859375 -38.765625 C 2.035156 -38.785156 1.472656 -39.035156 1.171875 -39.515625 C 0.867188 -40.085938 0.695312 -41.128906 0.65625 -42.640625 C 0.582031 -44.921875 1.222656 -46.078125 2.578125 -46.109375 L 13.40625 -46.421875 C 15.195312 -46.472656 16.113281 -45.863281 16.15625 -44.59375 C 16.257812 -40.96875 15.597656 -39.132812 14.171875 -39.09375 L 12.640625 -39.0625 L 13.609375 -26.84375 L 14.21875 -7.828125 L 16.0625 -7.875 C 17.476562 -7.875 18.207031 -7.242188 18.25 -5.984375 C 18.269531 -2.347656 17.328125 -0.503906 15.421875 -0.453125 L 3.859375 -0.109375 C 3.117188 -0.128906 2.601562 -0.378906 2.3125 -0.859375 C 2 -1.429688 1.820312 -2.492188 1.78125 -4.046875 C 1.707031 -6.328125 2.242188 -7.484375 3.390625 -7.515625 Z M 3.390625 -7.515625 "/></g></g></g><g fill="rgb(100%, 34.118652%, 34.118652%)" fill-opacity="1"><g transform="translate(166.037893, 59.528632)"><g><path d="M 14.796875 -47.4375 C 19.234375 -47.570312 22.609375 -47.039062 24.921875 -45.84375 C 27.242188 -44.644531 28.960938 -42.394531 30.078125 -39.09375 C 31.191406 -35.800781 31.84375 -30.894531 32.03125 -24.375 C 32.300781 -15.320312 31.304688 -8.957031 29.046875 -5.28125 C 26.785156 -1.601562 22.5 0.328125 16.1875 0.515625 C 14.632812 0.554688 10.15625 0.359375 2.75 -0.078125 L 1.40625 -46.015625 C 7.59375 -46.878906 12.054688 -47.351562 14.796875 -47.4375 Z M 18.21875 -40.25 C 14.6875 -40.144531 12.472656 -40.007812 11.578125 -39.84375 C 10.679688 -39.675781 10.242188 -39.265625 10.265625 -38.609375 L 11.15625 -7.921875 C 11.164062 -7.472656 11.445312 -7.210938 12 -7.140625 C 12.5625 -7.078125 13.6875 -7.070312 15.375 -7.125 C 17.070312 -7.175781 18.257812 -7.300781 18.9375 -7.5 C 19.625 -7.707031 20.253906 -8.050781 20.828125 -8.53125 C 21.410156 -9.019531 21.78125 -9.9375 21.9375 -11.28125 C 22.28125 -13.914062 22.375 -17.960938 22.21875 -23.421875 C 21.882812 -34.710938 20.550781 -40.320312 18.21875 -40.25 Z M 18.21875 -40.25 "/></g></g></g><g fill="rgb(100%, 34.118652%, 34.118652%)" fill-opacity="1"><g transform="translate(200.954739, 58.512064)"><g><path d="M 22.296875 -28.5 C 23.929688 -28.550781 24.769531 -27.84375 24.8125 -26.375 C 24.875 -24.375 24.789062 -23 24.5625 -22.25 C 24.34375 -21.507812 23.722656 -21.125 22.703125 -21.09375 L 10.71875 -20.75 L 11.09375 -7.734375 L 25.21875 -8.140625 C 26.195312 -8.128906 26.875 -7.953125 27.25 -7.609375 C 27.632812 -7.273438 27.835938 -6.765625 27.859375 -6.078125 C 27.921875 -4.078125 27.773438 -2.691406 27.421875 -1.921875 C 27.078125 -1.160156 26.351562 -0.765625 25.25 -0.734375 L 3.734375 -0.109375 L 2.71875 -1.0625 L 1.40625 -46.078125 L 23.109375 -46.71875 C 24.867188 -46.71875 25.769531 -46.085938 25.8125 -44.828125 C 25.800781 -43.722656 25.765625 -42.851562 25.703125 -42.21875 C 25.640625 -41.582031 25.398438 -40.953125 24.984375 -40.328125 C 24.578125 -39.710938 23.96875 -39.390625 23.15625 -39.359375 L 9.515625 -38.96875 L 10.5 -28.15625 Z M 22.296875 -28.5 "/></g></g></g><g fill="rgb(100%, 34.118652%, 34.118652%)" fill-opacity="1"><g transform="translate(230.490362, 57.652164)"><g><path d="M 2.703125 -1.546875 L 1.453125 -44.796875 C 1.410156 -46.296875 2.859375 -47.085938 5.796875 -47.171875 C 6.410156 -47.191406 6.890625 -47.1875 7.234375 -47.15625 C 7.578125 -47.132812 8.019531 -46.957031 8.5625 -46.625 C 9.101562 -46.289062 9.582031 -45.800781 10 -45.15625 L 21.6875 -19.78125 L 20.59375 -45.421875 C 20.550781 -46.878906 22 -47.648438 24.9375 -47.734375 C 26.15625 -47.765625 26.992188 -47.644531 27.453125 -47.375 C 27.910156 -47.113281 28.171875 -46.535156 28.234375 -45.640625 L 29.75 -27.25 L 30.484375 -2.171875 C 30.503906 -1.484375 30.492188 -1.015625 30.453125 -0.765625 C 30.316406 -0.179688 29.53125 0.128906 28.09375 0.171875 C 25.445312 0.242188 23.835938 -0.460938 23.265625 -1.953125 L 10.484375 -26.984375 L 11.265625 -1.671875 C 11.296875 -0.941406 11.296875 -0.453125 11.265625 -0.203125 C 11.117188 0.367188 10.332031 0.675781 8.90625 0.71875 C 4.820312 0.84375 2.753906 0.0859375 2.703125 -1.546875 Z M 2.703125 -1.546875 "/></g></g></g><g fill="rgb(100%, 34.118652%, 34.118652%)" fill-opacity="1"><g transform="translate(263.694995, 56.685446)"><g><path d="M 26.453125 -8 C 27.472656 -8.03125 28 -7.390625 28.03125 -6.078125 C 28.070312 -4.773438 28.082031 -3.796875 28.0625 -3.140625 C 27.945312 -1.671875 27.316406 -0.816406 26.171875 -0.578125 C 22.566406 0.0546875 19.890625 0.398438 18.140625 0.453125 C 12.066406 0.628906 7.835938 -0.957031 5.453125 -4.3125 C 3.066406 -7.675781 1.742188 -13.820312 1.484375 -22.75 C 1.296875 -29.269531 1.648438 -34.269531 2.546875 -37.75 C 3.441406 -41.226562 4.984375 -43.691406 7.171875 -45.140625 C 9.359375 -46.585938 12.660156 -47.375 17.078125 -47.5 C 21.503906 -47.632812 24.75 -47.035156 26.8125 -45.703125 C 27.238281 -45.441406 27.457031 -45.109375 27.46875 -44.703125 C 27.476562 -44.296875 27.304688 -43.519531 26.953125 -42.375 C 26.597656 -41.238281 26.253906 -40.429688 25.921875 -39.953125 C 25.585938 -39.472656 25.234375 -39.226562 24.859375 -39.21875 C 24.492188 -39.207031 24.207031 -39.222656 24 -39.265625 C 20.925781 -39.785156 18.28125 -40.015625 16.0625 -39.953125 C 13.84375 -39.890625 12.429688 -38.625 11.828125 -36.15625 C 11.234375 -33.6875 11.015625 -29.707031 11.171875 -24.21875 C 11.335938 -18.738281 11.59375 -14.921875 11.9375 -12.765625 C 12.289062 -10.617188 12.863281 -9.128906 13.65625 -8.296875 C 14.457031 -7.460938 15.703125 -7.066406 17.390625 -7.109375 C 19.078125 -7.160156 20.988281 -7.316406 23.125 -7.578125 C 25.269531 -7.847656 26.378906 -7.988281 26.453125 -8 Z M 26.453125 -8 "/></g></g></g><g fill="rgb(100%, 34.118652%, 34.118652%)" fill-opacity="1"><g transform="translate(294.14785, 55.798842)"><g><path d="M 3.390625 -7.515625 L 5.59375 -7.578125 L 4.6875 -38.828125 L 2.859375 -38.765625 C 2.035156 -38.785156 1.472656 -39.035156 1.171875 -39.515625 C 0.867188 -40.085938 0.695312 -41.128906 0.65625 -42.640625 C 0.582031 -44.921875 1.222656 -46.078125 2.578125 -46.109375 L 13.40625 -46.421875 C 15.195312 -46.472656 16.113281 -45.863281 16.15625 -44.59375 C 16.257812 -40.96875 15.597656 -39.132812 14.171875 -39.09375 L 12.640625 -39.0625 L 13.609375 -26.84375 L 14.21875 -7.828125 L 16.0625 -7.875 C 17.476562 -7.875 18.207031 -7.242188 18.25 -5.984375 C 18.269531 -2.347656 17.328125 -0.503906 15.421875 -0.453125 L 3.859375 -0.109375 C 3.117188 -0.128906 2.601562 -0.378906 2.3125 -0.859375 C 2 -1.429688 1.820312 -2.492188 1.78125 -4.046875 C 1.707031 -6.328125 2.242188 -7.484375 3.390625 -7.515625 Z M 3.390625 -7.515625 "/></g></g></g><g fill="rgb(100%, 34.118652%, 34.118652%)" fill-opacity="1"><g transform="translate(314.021706, 55.220235)"><g><path d="M 16.859375 -47.5625 C 19.660156 -47.644531 21.207031 -47.0625 21.5 -45.8125 L 26.203125 -27.140625 L 31.140625 -2.25 C 31.242188 -1.84375 31.300781 -1.460938 31.3125 -1.109375 C 31.320312 -0.765625 31.226562 -0.476562 31.03125 -0.25 C 30.832031 -0.0195312 30.140625 0.109375 28.953125 0.140625 C 25.328125 0.242188 23.363281 -0.472656 23.0625 -2.015625 L 20.5625 -14.5625 L 12.015625 -14.3125 L 10.5 -1.59375 C 10.394531 -0.726562 10.253906 -0.148438 10.078125 0.140625 C 9.910156 0.429688 9.660156 0.601562 9.328125 0.65625 C 9.003906 0.707031 8.472656 0.742188 7.734375 0.765625 L 6.03125 0.8125 C 4.601562 0.851562 3.695312 0.796875 3.3125 0.640625 C 2.40625 0.335938 1.890625 -0.0078125 1.765625 -0.40625 C 1.722656 -0.613281 1.695312 -0.796875 1.6875 -0.953125 C 1.6875 -1.117188 2.035156 -3.828125 2.734375 -9.078125 C 3.441406 -14.328125 4.3125 -20.578125 5.34375 -27.828125 C 6.375 -35.078125 7.050781 -39.828125 7.375 -42.078125 C 7.695312 -44.335938 7.875 -45.609375 7.90625 -45.890625 C 8.039062 -46.835938 11.023438 -47.394531 16.859375 -47.5625 Z M 15.25 -39.5 L 12.953125 -21.734375 L 19 -21.921875 Z M 15.25 -39.5 "/></g></g></g><g fill="rgb(100%, 34.118652%, 34.118652%)" fill-opacity="1"><g transform="translate(346.981741, 54.260638)"><g><path d="M 1.453125 -44.796875 C 1.421875 -45.691406 1.613281 -46.296875 2.03125 -46.609375 C 2.457031 -46.929688 3.285156 -47.109375 4.515625 -47.140625 C 7.453125 -47.222656 8.960938 -46.535156 9.046875 -45.078125 L 10.5 -26.75 L 11.09375 -7.734375 L 22.953125 -8.078125 C 24.953125 -8.140625 25.972656 -7.4375 26.015625 -5.96875 C 26.097656 -3.3125 25.757812 -1.707031 25 -1.15625 C 24.59375 -0.851562 24.066406 -0.695312 23.421875 -0.6875 L 3.734375 -0.109375 L 2.71875 -1.0625 Z M 1.453125 -44.796875 "/></g></g></g><g clip-path="url(#id2)"><path stroke-linecap="round" transform="matrix(4.729127, -0.137684, 0.137804, 4.733266, 11.713373, 13.295694)" fill="none" stroke-linejoin="miter" d="M 0.500042 -0.0000600369 L 76.901573 -0.000121234 " stroke="rgb(100%, 34.118652%, 34.118652%)" stroke-width="1" stroke-opacity="1" stroke-miterlimit="4"/></g><g clip-path="url(#id3)"><path stroke-linecap="round" transform="matrix(4.729127, -0.137684, 0.137804, 4.733266, 13.339462, 69.148243)" fill="none" stroke-linejoin="miter" d="M 0.499818 -0.000274911 L 76.902174 -0.000312102 " stroke="rgb(100%, 34.118652%, 34.118652%)" stroke-width="1" stroke-opacity="1" stroke-miterlimit="4"/></g></svg>